<svg xmlns="http://www.w3.org/2000/svg" viewBox="0 0 100 100">
  <defs>
    <linearGradient id="grad" x1="0%" y1="0%" x2="100%" y2="100%">
      <stop offset="0%" style="stop-color:#25D366"/>
      <stop offset="100%" style="stop-color:#128C7E"/>
    </linearGradient>
  </defs>
  <rect width="100" height="100" rx="20" fill="url(#grad)"/>
  <path d="M50 20c-16.569 0-30 13.431-30 30 0 5.292 1.37 10.268 3.776 14.594L20 80l15.867-3.594A29.88 29.88 0 0050 80c16.569 0 30-13.431 30-30S66.569 20 50 20zm0 54c-4.418 0-8.618-1.186-12.26-3.26l-.88-.52-9.13 2.39 2.44-8.91-.57-.91A23.87 23.87 0 0126 50c0-13.255 10.745-24 24-24s24 10.745 24 24-10.745 24-24 24zm13.17-17.82c-.72-.36-4.27-2.11-4.93-2.35-.66-.24-1.14-.36-1.62.36-.48.72-1.86 2.35-2.28 2.83-.42.48-.84.54-1.56.18-.72-.36-3.04-1.12-5.79-3.58-2.14-1.91-3.59-4.27-4.01-4.99-.42-.72-.04-1.11.32-1.47.32-.32.72-.84 1.08-1.26.36-.42.48-.72.72-1.2.24-.48.12-.9-.06-1.26-.18-.36-1.62-3.91-2.22-5.35-.58-1.41-.18-2.17.43-2.87.55-.63 1.2-.66 1.68-.66h1.14c.48 0 1.14-.18 1.74 1.32.6 1.5 2.04 4.99 2.22 5.35.18.36.3.78.06 1.26-.24.48-.36.78-.72 1.2-.36.42-.76.94-1.08 1.26-.36.36-.74.74-.32 1.46.42.72 1.87 3.09 4.02 5 2.78 2.47 5.13 3.24 5.85 3.6.72.36 1.14.3 1.56-.18.42-.48 1.8-2.11 2.28-2.83.48-.72.96-.6 1.62-.36.66.24 4.21 1.99 4.93 2.35.72.36 1.2.54 1.38.84.18.3.18 1.74-.42 3.42-.6 1.68-3.54 3.3-4.92 3.42-1.38.12-2.64.6-8.89-1.85z" fill="white"/>
</svg>
